<svg version="1" xmlns="http://www.w3.org/2000/svg" width="1365.333" height="1365.333" viewBox="0 0 1024.000000 1024.000000"><path d="M97.5 132c-5.5 1.2-10.5 4.2-14.1 8.4-6.6 7.7-6.6 8.2-6.6 72.7 0 52.3.2 58.4 1.7 63.4 2.9 9 10.7 15.5 20.7 17.3 2.4.4 165 .7 361.3.7l357-.2 4.9-2.2c6.6-2.9 12-8.7 14.2-15.2 1.7-5 1.8-9.8 1.8-64.9-.1-57.8-.1-59.6-2.1-64.1-2.9-6.4-8-11.8-13.3-14.3l-4.5-2.1-359-.1c-197.5 0-360.3.2-362 .6zM207.9 431.2c-2.4.3-5.7 1.1-7.2 1.7-4.2 1.6-12.3 10.4-13.2 14.3-.4 1.8-1 4-1.2 4.8-.8 2.6-.9 114.3-.1 119 1.7 9.8 8.5 18.2 17.3 21.1 3.3 1.1 66.2 1.3 363.5 1.3h359.5l5.3-2.3c7.1-3.2 13.2-11.1 14.8-19.2.7-3.9.8-114.8 0-119.4-1.3-8.4-6.4-15.3-14.4-19.2l-5.7-2.8H569.4c-196.4 0-359 .3-361.5.7zM99.4 730.2c-11.4 2-20 10.2-21.9 20.9-.4 1.9-.7 29.1-.7 60.6 0 52.7.1 57.6 1.8 63 2.1 6.6 7.8 13.1 14.1 16 3.6 1.7 22 1.7 364.3 1.8 342.3 0 360.7-.1 365.1-1.8 5.9-2.3 10.2-6.5 13.6-13.5l2.8-5.7V811l-.1-60.5-2.8-5.8c-3.2-6.4-6.9-10-13.6-13-4.5-2-5.2-2-361.6-2.1-196.5-.1-358.9.2-361 .6z"/></svg>