<svg xmlns="http://www.w3.org/2000/svg" xmlns:xlink="http://www.w3.org/1999/xlink" width="1000" height="700" viewBox="0 0 1000 700"><defs><clipPath id="a"><rect width="1000" height="700" style="fill:none"/></clipPath></defs><title>fArtboard 64</title><g style="clip-path:url(#a)"><polygon points="965.75 354.43 950.69 371.38 950.69 423.35 934.63 423.35 934.63 280.99 862.85 280.99 862.85 612.6 841.27 588.31 841.27 397.37 681.65 397.37 681.65 445.95 597.33 445.95 597.33 598.48 597.33 665.64 523.25 665.64 523.25 467.29 501.82 467.29 501.82 390.12 457.89 390.12 457.89 517.93 437.54 517.93 437.54 542.04 411.83 496.23 366.83 496.23 366.83 331.03 280.05 331.03 272.55 339.47 272.55 390.12 272.55 446.79 247.91 446.79 247.91 296.06 173.99 296.06 173.99 321.38 159.52 337.66 159.52 594.5 142.92 594.5 142.92 388.31 133.27 388.31 133.27 368.41 48.1 368.41 33.64 384.69 33.64 407.6 -46.71 407.6 -51 700 216.84 700 216.84 699.4 488.96 699.4 488.96 700 597.33 700 753.59 700 1030 700 1030 354.43 965.75 354.43"/></g></svg>
