<svg xmlns="http://www.w3.org/2000/svg" xmlns:xlink="http://www.w3.org/1999/xlink" width="1000" height="700" viewBox="0 0 1000 700"><defs><clipPath id="a"><rect width="1000" height="700" style="fill:none"/></clipPath></defs><title>fArtboard 64</title><g style="clip-path:url(#a)"><polygon points="1029.56 393.48 1029.56 594.71 1003.59 594.71 1003.59 514.63 966.8 483.42 966.8 362.28 920.27 362.28 893.22 339.34 858.59 339.34 858.59 461.4 775.27 461.4 775.27 599.98 753.62 599.98 753.62 406.33 693.03 432.95 693.03 548.58 676.8 548.58 676.8 370.54 656.24 370.54 656.24 318.23 635.68 318.23 635.68 306.3 627.02 306.3 627.02 316.39 576.16 316.39 576.16 356.77 528.55 356.77 516.64 370.54 516.64 535.74 476.07 535.74 476.07 502.24 450.64 480.67 450.64 401.74 361.91 401.74 361.91 466.9 329.44 466.9 329.44 521.97 290.49 558.68 265.6 558.68 265.6 384.31 196.34 343.93 196.34 505.45 180.11 505.45 180.11 394.4 97.87 394.4 97.87 432.95 60 432.95 60 617.42 43.77 617.42 43.77 537.57 -11.42 537.57 -11.42 512.79 -21.16 500.86 -80.67 500.86 -85 822.99 942.08 822.99 1003.59 822.99 1029.56 822.99 1100 822.99 1100 393.48 1029.56 393.48"/></g></svg>