<svg xmlns="http://www.w3.org/2000/svg" xmlns:xlink="http://www.w3.org/1999/xlink" width="1000" height="700" viewBox="0 0 1000 700"><defs><clipPath id="a"><rect width="1000" height="700" style="fill:none"/></clipPath></defs><title>Artboard 64</title><g style="clip-path:url(#a)"><polygon points="33.64 374.64 33.64 352.26 48.1 336.37 95.03 336.37 95.03 289.62 57.84 281.45 57.84 251.12 -42.06 251.12 -42.06 374.64 33.64 374.64" style="opacity:0.71"/><path d="M1003.59,544.7V464.62l-36.79-31.2V322.71H1022V305.44l-30.29-16.62V242.15H909.88V192H804.68V319.15H780.24v29.75H761.11v15.75h80.16v46.75h-66V550H753.62V420.06H738.79v-98H683.53V293.48H652.18v45.79l-29.22,16v92.16H553.88V245.07H479.49V283H421l-15.94,8.75v21H366.83v39h-4.92V416.9H329.44V472l-39,36.71H265.6V412.91h7V308.1l7.5-8.24h7.09v-18H247.91V324L208.6,301.06H196.34V455.44H180.11v-111H159.52V306.34l4.8-5.27H138.9v46.37l-16.47,9V402H95V382.94H60V567.41H43.77V487.57H-11.42V462.79l-9.74-11.93h-26.7l1.07-71.41H-51V653H281.11v-.32l740.89-.48V544.7Zm-486.94-59H476.07v-33.5L457.9,436.82V357.56h43.93v75.37h14.82ZM693,382.94V498.58H676.8V412.09h4.86V364.64h53Zm241.6-70.67H920.27l-27.05-22.94H862.85V251h71.78Z" style="opacity:0.5"/><polygon points="1029.56 343.48 1029.56 544.7 1003.59 544.7 1003.59 464.62 966.8 433.42 966.8 312.27 920.27 312.27 893.22 289.33 858.59 289.33 858.59 411.39 775.27 411.39 775.27 549.97 753.62 549.97 753.62 356.33 693.03 382.94 693.03 498.58 676.8 498.58 676.8 320.54 656.24 320.54 656.24 268.22 635.68 268.22 635.68 256.29 627.02 256.29 627.02 266.39 576.16 266.39 576.16 306.77 528.55 306.77 516.64 320.54 516.64 485.73 476.07 485.73 476.07 452.23 450.64 430.67 450.64 351.74 361.91 351.74 361.91 416.9 329.44 416.9 329.44 471.96 290.49 508.68 265.6 508.68 265.6 334.3 196.34 293.92 196.34 455.44 180.11 455.44 180.11 344.4 97.87 344.4 97.87 382.94 60 382.94 60 567.41 43.77 567.41 43.77 487.57 -11.42 487.57 -11.42 462.79 -21.16 450.86 -80.67 450.86 -85 772.99 942.08 772.99 1003.59 772.99 1029.56 772.99 1100 772.99 1100 343.48 1029.56 343.48"/><path d="M676.8,412.09h4.86V364.64h53L693,382.94V498.58H676.8ZM753.62,550h21.64V411.39h66V364.64H753.62ZM966.8,433.42l36.79,31.2V544.7h26V343.48h.44V322.71H966.8ZM893.21,289.33l27.05,22.94h14.36V251H862.85v38.34ZM180.11,344.4v111h16.23V293.92L247.91,324V265.71H174v24.73l-14.46,15.9V344.4ZM-21.16,450.86l9.74,11.93v24.78H43.77v79.84H60V382.94H97.87V344.4h35.4v-8H48.1l-14.46,15.9v22.38H-46.71l-1.14,76.22Zm497.22,1.38v33.5h40.58v-52.8H501.82V357.56H457.9v79.26ZM265.6,508.67h24.89l39-36.71V416.9h32.46V351.74h4.92V299.86H280l-7.5,8.24V412.91h-7Z" style="opacity:0.75"/></g></svg>