<svg xmlns="http://www.w3.org/2000/svg" xmlns:xlink="http://www.w3.org/1999/xlink" width="1000" height="700" viewBox="0 0 1000 700"><defs><clipPath id="a"><rect width="1000" height="700" style="fill:none"/></clipPath></defs><title>fArtboard 64</title><g style="clip-path:url(#a)"><polygon points="991.71 338.82 991.71 292.16 909.88 292.16 909.88 241.99 804.68 241.99 804.68 369.15 780.24 369.15 780.24 398.9 761.11 398.9 761.11 470.06 738.79 470.06 738.79 372.07 683.53 372.07 683.53 343.49 652.18 343.49 652.18 389.27 622.96 405.31 622.96 497.48 553.88 497.48 553.88 295.07 479.49 295.07 479.49 332.99 421.04 332.99 405.1 341.74 405.1 362.74 331.78 362.74 317.96 370.32 317.96 441.48 287.14 441.48 287.14 331.82 229.76 331.82 229.76 351.07 138.9 351.07 138.9 397.44 122.42 406.48 122.42 452.03 95.03 452.03 95.03 339.62 57.84 331.46 57.84 301.13 -42.06 301.13 -42.06 429.45 -51 429.45 -51 702.99 29.28 702.99 95.03 702.99 281.11 702.99 281.11 702.67 1022 702.19 1022 355.44 991.71 338.82"/></g></svg>
